# xmcd
#
# Track frame offsets:
#	150
#	28242
#	46022
#	65652
#	87100
#	107632
#	125082
#	144302
#	162082
#	181012
#
# Disc length: 3035 seconds
#
# Revision: 18
# Processed by: cddbd v1.5.2PL0 Copyright (c) Steve Scherf et al.
# Submitted via: Jack! The Knife 20 Magnifico
#
DISCID=7e0bd90a
DTITLE=Nightwish - Century Child
DYEAR=2002
DGENRE=Metal
TTITLE0=Bless The Child
TTITLE1=End Of All Hope
TTITLE2=Dead To The World
TTITLE3=Ever Dream
TTITLE4=Slaying The Dreamer
TTITLE5=Forever Yours
TTITLE6=Ocean Soul
TTITLE7=Feel For You
TTITLE8=The Phantom Of The Opera
TTITLE9=Beauty Of The Beast
EXTD=Tero Kinnunen
EXTT0=Tuomas Holopainen
EXTT1=Tuomas Holopainen
EXTT2=Tuomas Holopainen
EXTT3=Tuomas Holopainen
EXTT4=Holopainen, Vuorinen
EXTT5=Tuomas Holopainen
EXTT6=Tuomas Holopainen
EXTT7=Tuomas Holopainen
EXTT8=Andrew Lloyd Webber
EXTT9=Holopainen, Hietala, Vuorinen
PLAYORDER=
